PathFileType	4	(X/Y/Z)	TVC_12_BWA1_walk_RCNL2025.trc
DataRate	CameraRate	NumFrames	NumMarkers	Units	OrigDataRate	OrigDataStartFrame	OrigNumFrames
100	100	9	27	mm	100	352	468
Frame#	Time	R_Shoulder			L_Shoulder			C7			J_Notch			R_Elbow			L_Elbow			R_Wrist			L_Wrist			R_Asis			L_Asis			R_Psis			L_Psis			Sacral			Thoracic			Sternum			R_Thigh_Lateral			R_Knee_Lateral			R_Shank_Lateral			R_Ankle_Lateral			R_Heel			R_Toe			L_Thigh_Lateral			L_Knee_Lateral			L_Shank_Lateral			L_Ankle_Lateral			L_Heel			L_Toe		
		X1	Y1	Z1	X2	Y2	Z2	X3	Y3	Z3	X4	Y4	Z4	X5	Y5	Z5	X6	Y6	Z6	X7	Y7	Z7	X8	Y8	Z8	X9	Y9	Z9	X10	Y10	Z10	X11	Y11	Z11	X12	Y12	Z12	X13	Y13	Z13	X14	Y14	Z14	X15	Y15	Z15	X16	Y16	Z16	X17	Y17	Z17	X18	Y18	Z18	X19	Y19	Z19	X20	Y20	Z20	X21	Y21	Z21	X22	Y22	Z22	X23	Y23	Z23	X24	Y24	Z24	X25	Y25	Z25	X26	Y26	Z26	X27	Y27	Z27
352	3.51000000	324.380341	1350.458008	438.355194	331.149780	1376.849609	20.611912	222.875397	1434.578857	232.758759	373.789825	1317.467041	231.853760	191.190826	1039.297119	497.324768	166.301651	1074.761353	-47.915474	231.819534	792.531860	465.937317	209.534851	839.742096	-12.626706	260.751007	927.337219	385.931366	274.357971	938.893311	40.369335	89.839111	986.421692	268.564819	90.368942	983.800293	160.103638	90.104027	985.110992	214.334229	121.912163	1194.087402	214.923920	443.713165	1118.521118	215.276764	213.621216	620.965698	406.176941	227.463242	490.131073	353.654785	188.380219	272.497620	391.993103	189.559891	61.991634	331.282410	155.470337	57.139309	269.300049	327.403259	49.340691	330.798248	320.096191	622.539917	-21.116259	373.356354	502.679230	36.478615	274.662292	334.464111	6.200750	191.289856	141.395370	90.606941	144.385971	142.908066	143.880203	310.826080	69.346619	115.797508
353	3.52000000	330.857391	1350.750488	437.196594	336.568756	1376.213379	19.322697	228.905838	1434.526367	231.619125	379.705750	1317.303101	230.611557	197.219574	1040.011353	497.385712	170.799622	1074.451416	-48.410549	237.971840	793.255005	466.421051	214.403206	839.766907	-13.725011	266.526733	927.386902	385.409943	279.010773	938.673889	40.159431	95.266701	986.820496	268.692780	95.485153	984.070190	160.236893	95.375927	985.445343	214.464836	127.652908	1194.146118	214.767365	449.290741	1118.196899	214.242142	217.317719	621.017029	405.941040	230.449738	490.027313	353.438995	190.078339	272.603058	391.902985	189.658569	62.101627	331.153442	155.375336	57.403492	269.150757	327.380585	49.363419	330.694397	325.713013	622.860046	-21.508392	381.166809	504.066803	36.436440	289.303925	331.782501	5.744637	215.164169	135.265213	89.838135	168.012283	134.135803	143.796432	337.668732	68.108543	113.697456
354	3.53000000	337.362488	1350.984863	435.942810	342.071289	1375.446289	17.946480	234.979294	1434.409302	230.360016	385.672638	1317.070312	229.288971	203.287201	1040.681641	497.345520	175.377975	1074.017212	-48.970951	244.141731	793.918823	466.757782	219.265015	839.699402	-14.927420	272.354797	927.365356	384.846466	283.690979	938.324280	39.830940	100.746719	987.159058	268.794159	100.655777	984.249756	160.323563	100.701248	985.704407	214.558861	133.450302	1194.137573	214.500397	454.916382	1117.783081	213.138672	221.518112	621.040405	405.715057	233.677856	489.881104	353.213043	191.912064	272.704163	391.799591	189.772034	62.214813	331.017639	155.211563	57.751865	268.984589	327.376007	49.380123	330.588745	331.029999	622.880310	-21.909208	388.305328	505.113007	36.506836	303.836975	329.070404	5.111877	239.235580	129.152328	88.648987	192.117966	125.406281	143.216827	364.707977	67.093735	111.138863
355	3.54000000	343.892792	1351.173706	434.589142	347.657379	1374.561401	16.478237	241.103149	1434.227539	228.985062	391.695618	1316.768066	227.877563	209.405121	1041.309570	497.194244	180.045212	1073.463501	-49.590801	250.326523	794.522797	466.948135	223.987518	839.469940	-16.112230	278.226349	927.269592	384.253510	288.414154	937.849243	39.372345	106.289955	987.420837	268.849487	105.897179	984.327576	160.354630	106.093567	985.874207	214.602058	139.302322	1194.065308	214.120407	460.587982	1117.278442	211.963104	226.200470	621.028076	405.491516	237.135239	489.688141	352.969391	193.880417	272.798737	391.672791	189.899139	62.330200	330.873932	154.989380	58.170952	268.800598	327.390045	49.388954	330.481323	336.044525	622.586060	-22.305111	394.753693	505.793854	36.722195	318.214661	326.421631	4.294199	263.509094	123.193008	86.984749	216.656479	116.844925	142.033966	391.884338	66.404449	108.170006
356	3.55000000	350.448029	1351.325439	433.129517	353.326202	1373.571777	14.910860	247.281189	1433.978638	227.492828	397.775604	1316.394897	226.367310	215.581314	1041.895020	496.923981	184.805466	1072.796143	-50.267849	256.523598	795.067200	466.994553	228.456398	839.018921	-17.170942	284.129181	927.098328	383.640106	293.200958	937.251099	38.771740	111.904709	987.588440	268.835632	111.222481	984.299194	160.323318	111.563595	985.943817	214.579475	145.203934	1193.936523	213.620193	466.304840	1116.685425	210.715073	231.310287	620.972656	405.260742	240.807297	489.444000	352.698578	195.982239	272.881287	391.515656	190.038635	62.445847	330.722107	154.745712	58.622375	268.603027	327.420441	49.390560	330.370117	340.725952	621.963379	-22.685890	400.523987	506.100067	37.097603	332.435486	323.903870	3.273246	287.951538	117.527977	84.799377	241.535156	108.576706	140.169281	419.104675	66.149117	104.846664
357	3.56000000	357.029816	1351.443237	431.556274	359.075714	1372.489502	13.236626	253.512589	1433.662354	225.879623	403.909424	1315.949219	224.750290	221.820511	1042.435547	496.527527	189.655594	1072.021240	-51.000168	262.730064	795.549591	466.901596	232.632637	838.324585	-18.046024	290.050476	926.853271	383.013519	298.078217	936.528931	38.019573	117.594902	987.648560	268.730957	116.640175	984.164185	160.225540	117.117538	985.906372	214.478249	151.154297	1193.751465	212.981430	472.069183	1116.009644	209.397141	236.767319	620.869690	405.011780	244.676590	489.146118	352.392059	198.214722	272.944641	391.325623	190.189911	62.559654	330.561676	154.532150	59.054306	268.401825	327.463226	49.388252	330.251404	345.023071	620.994873	-23.044813	405.666626	506.038391	37.623718	346.509583	321.561310	2.038307	312.485046	112.296127	82.057541	266.610046	100.735428	137.568176	446.238098	66.446960	101.228050
358	3.57000000	363.640045	1351.525879	429.860046	364.904053	1371.322144	11.448818	259.793396	1433.281860	224.143707	410.090942	1315.429443	223.022491	228.123077	1042.925537	495.996307	194.586929	1071.143921	-51.786263	268.943710	795.965820	466.673325	236.560768	837.407959	-18.738015	295.983032	926.541138	382.379578	303.078766	935.679260	37.111561	123.360664	987.594543	268.518036	122.155739	983.916382	160.056961	122.758202	985.755463	214.287498	157.160446	1193.498657	212.175781	477.885345	1115.258423	208.014297	242.477432	620.718262	404.732483	248.721924	488.796173	352.045197	200.570633	272.983429	391.102936	190.353165	62.669807	330.390198	154.386520	59.425369	268.209564	327.514984	49.385506	330.121918	348.876129	619.655029	-23.379629	410.273254	505.630035	38.266636	360.437897	319.419739	0.594341	336.977936	107.625221	78.742851	291.687134	93.467712	134.192352	473.113129	67.423332	97.374550
359	3.58000000	370.278381	1351.568848	428.030548	370.809601	1370.072632	9.541841	266.117401	1432.839600	222.283905	416.311462	1314.835327	221.183609	234.484268	1043.356445	495.320770	199.592697	1070.169067	-52.628468	275.164192	796.313660	466.311844	240.334862	836.316437	-19.285022	301.929016	926.174988	381.742950	308.239563	934.697632	36.050709	129.201553	987.421631	268.183594	127.776993	983.538330	159.807144	128.489273	985.479980	213.995369	163.231308	1193.159912	211.176300	483.758057	1114.440796	206.572662	248.345932	620.520386	404.410706	252.919067	488.398865	351.657440	203.037033	272.994446	390.848175	190.528931	62.774406	330.203125	154.317184	59.718456	268.036987	327.574036	49.384125	329.980530	352.233704	617.911926	-23.694651	414.471191	504.907013	38.978779	374.208069	317.494080	-1.041566	361.240784	103.618858	74.869896	316.527618	86.916656	130.030579	499.511627	69.181427	93.346764
360	3.59000000	376.939880	1351.564941	426.058594	376.789276	1368.740112	7.510949	272.473999	1432.333862	220.295059	422.559509	1314.167480	219.235474	240.894516	1043.719116	494.492554	204.673264	1069.101929	-53.535053	281.392616	796.592255	465.817535	244.053719	835.099457	-19.733872	307.898224	925.773376	381.106934	313.598297	933.579163	34.848988	135.120850	987.118896	267.715912	133.520172	983.002808	159.455215	134.320511	985.060852	213.585564	169.367996	1192.717773	209.970169	489.691925	1113.566772	205.078247	254.287720	620.278748	404.035919	257.242523	487.958862	351.230469	205.597000	272.975433	390.562744	190.716293	62.872356	329.996185	154.311935	59.936756	267.887817	327.639130	49.384319	329.827972	355.073456	615.736755	-24.001904	418.412903	503.910919	39.711403	387.793304	315.794708	-2.849210	385.039307	100.342155	70.491760	340.859039	81.190880	125.122574	525.166077	71.756325	89.202385
